<svg width="24" height="24" viewBox="0 0 24 24" fill="none" xmlns="http://www.w3.org/2000/svg">
<path d="M5 21H6V18H3V19C3 19.55 3.196 20.021 3.588 20.413C3.98 20.805 4.45067 21.0007 5 21ZM8 21H11V18H8V21ZM13 21H16V18H13V21ZM18 21H19C19.55 21 20.021 20.804 20.413 20.412C20.805 20.02 21.0007 19.5493 21 19V18H18V21ZM3 6H6V3H5C4.45 3 3.979 3.196 3.587 3.588C3.195 3.98 2.99934 4.45067 3 5V6ZM3 11H6V8H3V11ZM3 16H6V13H3V16ZM8 6H11V3H8V6ZM8 11H11V8H8V11ZM8 16H11V13H8V16ZM13 6H16V3H13V6ZM13 11H16V8H13V11ZM13 16H16V13H13V16ZM18 6H21V5C21 4.45 20.804 3.979 20.412 3.587C20.02 3.195 19.5493 2.99934 19 3H18V6ZM18 11H21V8H18V11ZM18 16H21V13H18V16Z" fill="black"/>
</svg>
