<svg width="28" height="28" viewBox="0 0 28 28" fill="none" xmlns="http://www.w3.org/2000/svg">
<g clip-path="url(#clip0_402_22)">
<path d="M10.9688 8.07895C10.9208 8.01725 10.8603 7.96646 10.7912 7.92995C10.7221 7.89345 10.646 7.87207 10.568 7.86723C10.49 7.86238 10.4118 7.8742 10.3388 7.90187C10.2657 7.92955 10.1993 7.97246 10.1441 8.02776L9.30396 8.8687C8.91152 9.26195 8.76689 9.81851 8.93833 10.3068C9.64987 12.328 10.8073 14.163 12.3248 15.6758C13.8376 17.1933 15.6727 18.3508 17.6938 19.0623C18.1821 19.2338 18.7387 19.0891 19.132 18.6967L19.9721 17.8566C20.0274 17.8013 20.0703 17.735 20.098 17.6619C20.1256 17.5888 20.1375 17.5107 20.1326 17.4327C20.1278 17.3547 20.1064 17.2786 20.0699 17.2095C20.0334 17.1404 19.9826 17.0798 19.9209 17.0319L18.0465 15.5743C17.9805 15.5231 17.9039 15.4876 17.8222 15.4705C17.7406 15.4533 17.6561 15.4549 17.5752 15.4751L15.7958 15.9196C15.5583 15.9789 15.3095 15.9758 15.0736 15.9104C14.8376 15.8451 14.6226 15.7197 14.4495 15.5466L12.454 13.5503C12.2808 13.3773 12.1553 13.1623 12.0898 12.9264C12.0243 12.6905 12.021 12.4416 12.0803 12.204L12.5255 10.4246C12.5458 10.3437 12.5473 10.2592 12.5302 10.1776C12.513 10.096 12.4775 10.0193 12.4264 9.95338L10.9688 8.07895ZM9.53064 7.41513C9.67283 7.2729 9.84364 7.16255 10.0317 7.0914C10.2198 7.02025 10.4209 6.98993 10.6217 7.00246C10.8224 7.01498 11.0181 7.07007 11.1959 7.16405C11.3737 7.25804 11.5295 7.38877 11.6529 7.54757L13.1105 9.4212C13.3778 9.76488 13.4721 10.2126 13.3665 10.6351L12.922 12.4144C12.899 12.5066 12.9003 12.6031 12.9256 12.6947C12.951 12.7862 12.9995 12.8697 13.0666 12.9369L15.063 14.9332C15.1303 15.0004 15.2138 15.0491 15.3055 15.0744C15.3972 15.0998 15.4939 15.1009 15.5862 15.0778L17.3648 14.6334C17.5733 14.5813 17.7909 14.5772 18.0012 14.6215C18.2115 14.6659 18.4089 14.7574 18.5786 14.8893L20.4523 16.3469C21.1258 16.871 21.1876 17.8663 20.5847 18.4684L19.7446 19.3085C19.1433 19.9098 18.2447 20.1738 17.407 19.8789C15.263 19.1245 13.3163 17.8971 11.7114 16.2876C10.1021 14.683 8.87464 12.7366 8.12014 10.5928C7.82602 9.75595 8.09008 8.85651 8.69133 8.25526L9.53146 7.41513H9.53064Z" fill="#5C5C5C"/>
</g>
<rect x="0.5" y="0.5" width="27" height="27" rx="13.5" stroke="#A9A9A9" stroke-opacity="0.51"/>
<defs>
<clipPath id="clip0_402_22">
<rect width="13" height="13" fill="white" transform="translate(8 7)"/>
</clipPath>
</defs>
</svg>
