<svg width="28" height="28" viewBox="0 0 28 28" fill="none" xmlns="http://www.w3.org/2000/svg">
<path d="M19 7H21V9H19V7Z" fill="#5C5C5C"/>
<path d="M19 10H21V12H19V10Z" fill="#5C5C5C"/>
<path d="M16 7H18V9H16V7Z" fill="#5C5C5C"/>
<path d="M16 10H18V12H16V10Z" fill="#5C5C5C"/>
<path d="M20 14V17H8V9H14V8H8C7.73478 8 7.48043 8.10536 7.29289 8.29289C7.10536 8.48043 7 8.73478 7 9V17C7 17.2652 7.10536 17.5196 7.29289 17.7071C7.48043 17.8946 7.73478 18 8 18H12V20H10V21H18V20H16V18H20C20.2652 18 20.5196 17.8946 20.7071 17.7071C20.8946 17.5196 21 17.2652 21 17V14H20ZM15 20H13V18H15V20Z" fill="#5C5C5C"/>
<rect x="0.5" y="0.5" width="27" height="27" rx="13.5" stroke="#A9A9A9" stroke-opacity="0.51"/>
</svg>
