<svg width="19" height="19" viewBox="0 0 19 19" fill="none" xmlns="http://www.w3.org/2000/svg">
<circle cx="9.5" cy="9.5" r="9.5" fill="#E8FDDE"/>
<path fill-rule="evenodd" clip-rule="evenodd" d="M10.0559 7.55554C9.95274 7.55554 9.85383 7.59651 9.7809 7.66944C9.70796 7.74238 9.66699 7.84129 9.66699 7.94443V11.0555C9.66699 11.1587 9.70796 11.2576 9.7809 11.3305C9.85383 11.4035 9.95274 11.4444 10.0559 11.4444H11.6114C11.7146 11.4444 11.8135 11.4035 11.8864 11.3305C11.9594 11.2576 12.0003 11.1587 12.0003 11.0555V7.94443C12.0003 7.84129 11.9594 7.74238 11.8864 7.66944C11.8135 7.59651 11.7146 7.55554 11.6114 7.55554H10.0559ZM11.2225 8.33332H10.4448V10.6667H11.2225V8.33332Z" fill="#3FBC3C"/>
<path d="M6.94455 7.55554C6.84141 7.55554 6.7425 7.59651 6.66957 7.66944C6.59664 7.74238 6.55566 7.84129 6.55566 7.94443C6.55566 8.04757 6.59664 8.14649 6.66957 8.21942C6.7425 8.29235 6.84141 8.33332 6.94455 8.33332H8.50011C8.60325 8.33332 8.70216 8.29235 8.77509 8.21942C8.84803 8.14649 8.889 8.04757 8.889 7.94443C8.889 7.84129 8.84803 7.74238 8.77509 7.66944C8.70216 7.59651 8.60325 7.55554 8.50011 7.55554H6.94455ZM6.94455 9.1111C6.84141 9.1111 6.7425 9.15207 6.66957 9.225C6.59664 9.29793 6.55566 9.39685 6.55566 9.49999C6.55566 9.60313 6.59664 9.70204 6.66957 9.77497C6.7425 9.8479 6.84141 9.88888 6.94455 9.88888H8.50011C8.60325 9.88888 8.70216 9.8479 8.77509 9.77497C8.84803 9.70204 8.889 9.60313 8.889 9.49999C8.889 9.39685 8.84803 9.29793 8.77509 9.225C8.70216 9.15207 8.60325 9.1111 8.50011 9.1111H6.94455ZM6.55566 11.0555C6.55566 10.9524 6.59664 10.8535 6.66957 10.7806C6.7425 10.7076 6.84141 10.6667 6.94455 10.6667H8.50011C8.60325 10.6667 8.70216 10.7076 8.77509 10.7806C8.84803 10.8535 8.889 10.9524 8.889 11.0555C8.889 11.1587 8.84803 11.2576 8.77509 11.3305C8.70216 11.4035 8.60325 11.4444 8.50011 11.4444H6.94455C6.84141 11.4444 6.7425 11.4035 6.66957 11.3305C6.59664 11.2576 6.55566 11.1587 6.55566 11.0555Z" fill="#3FBC3C"/>
<path fill-rule="evenodd" clip-rule="evenodd" d="M6.16667 6C5.85725 6 5.5605 6.12292 5.34171 6.34171C5.12292 6.5605 5 6.85725 5 7.16667V11.8333C5 12.1428 5.12292 12.4395 5.34171 12.6583C5.5605 12.8771 5.85725 13 6.16667 13H12.3889C12.6983 13 12.9951 12.8771 13.2138 12.6583C13.4326 12.4395 13.5556 12.1428 13.5556 11.8333V7.16667C13.5556 6.85725 13.4326 6.5605 13.2138 6.34171C12.9951 6.12292 12.6983 6 12.3889 6H6.16667ZM12.3889 6.77778H6.16667C6.06353 6.77778 5.96461 6.81875 5.89168 6.89168C5.81875 6.96461 5.77778 7.06353 5.77778 7.16667V11.8333C5.77778 11.9365 5.81875 12.0354 5.89168 12.1083C5.96461 12.1813 6.06353 12.2222 6.16667 12.2222H12.3889C12.492 12.2222 12.5909 12.1813 12.6639 12.1083C12.7368 12.0354 12.7778 11.9365 12.7778 11.8333V7.16667C12.7778 7.06353 12.7368 6.96461 12.6639 6.89168C12.5909 6.81875 12.492 6.77778 12.3889 6.77778Z" fill="#3FBC3C"/>
</svg>
