<svg width="9" height="8" viewBox="0 0 9 8" fill="none" xmlns="http://www.w3.org/2000/svg">
<g clip-path="url(#clip0_684_23)">
<path d="M7.3995 2.59031C7.30373 2.55751 7.20716 2.52713 7.10986 2.49919C7.12621 2.43252 7.14125 2.36666 7.15461 2.30196C7.37387 1.23947 7.23053 0.383503 6.74092 0.101678C6.27149 -0.168497 5.50378 0.113222 4.72843 0.786801C4.65202 0.853304 4.5773 0.921723 4.50435 0.991994C4.45551 0.945266 4.40582 0.899446 4.35528 0.854555C3.54268 0.134345 2.72818 -0.169199 2.2391 0.113432C1.77009 0.38445 1.63121 1.18912 1.82861 2.19606C1.84825 2.29579 1.87043 2.39501 1.89512 2.49361C1.77982 2.52631 1.66857 2.56112 1.5621 2.59817C0.609392 2.92975 0.000976562 3.44936 0.000976562 3.98834C0.000976562 4.54501 0.654138 5.10336 1.64643 5.44192C1.72688 5.46926 1.80799 5.49459 1.8897 5.51789C1.86317 5.62409 1.83961 5.73101 1.81905 5.83852C1.63086 6.82799 1.77782 7.61364 2.24556 7.88294C2.72867 8.16105 3.53951 7.87522 4.32902 7.18628C4.39304 7.13026 4.45565 7.07267 4.51679 7.01354C4.5958 7.08963 4.67691 7.1635 4.76003 7.23508C5.52483 7.89199 6.28014 8.15726 6.74743 7.88722C7.23007 7.60831 7.38695 6.76431 7.18329 5.73747C7.16725 5.65702 7.14925 5.57698 7.12933 5.4974C7.18628 5.48056 7.24217 5.46322 7.29665 5.44519C8.32824 5.10403 8.99943 4.55245 8.99943 3.98834C8.99943 3.4474 8.37137 2.92427 7.3995 2.59031ZM7.17577 5.08098C7.12656 5.09722 7.07608 5.11291 7.02462 5.12817C6.91073 4.76827 6.75706 4.38561 6.56897 3.9902C6.74845 3.60424 6.89622 3.22645 7.00691 2.86891C7.09896 2.8955 7.18828 2.92354 7.2744 2.95312C8.10711 3.23929 8.61503 3.66234 8.61503 3.98834C8.61503 4.33557 8.06647 4.78634 7.17577 5.08098ZM6.8062 5.81199C6.89625 6.26603 6.90908 6.67656 6.84943 6.9975C6.79586 7.28589 6.68809 7.47813 6.5548 7.55515C6.27125 7.71901 5.6648 7.50603 5.01076 6.9442C4.93344 6.87766 4.85799 6.80897 4.7845 6.73824C5.03807 6.46143 5.29147 6.13964 5.53879 5.78224C5.97381 5.74371 6.38478 5.6807 6.75748 5.5947C6.77543 5.66674 6.79168 5.73919 6.8062 5.81199ZM3.06875 7.52684C2.79169 7.62449 2.57102 7.62729 2.43762 7.55052C2.15379 7.38712 2.03579 6.75627 2.19674 5.9101C2.21587 5.81011 2.23778 5.71067 2.26244 5.61189C2.63102 5.69329 3.03901 5.75182 3.47505 5.78712C3.72405 6.13684 3.98476 6.45827 4.24751 6.73975C4.19167 6.79368 4.13451 6.84624 4.07608 6.89736C3.72693 7.20199 3.37708 7.41813 3.06875 7.52684ZM1.77079 5.07884C1.33201 4.92912 0.969646 4.73456 0.721275 4.52224C0.498071 4.33147 0.385414 4.14203 0.385414 3.98834C0.385414 3.66126 0.873897 3.24406 1.68864 2.96052C1.78752 2.92613 1.891 2.89368 1.99839 2.86322C2.11101 3.22884 2.25871 3.61112 2.43696 3.99768C2.25639 4.38996 2.10658 4.77834 1.99287 5.14827C1.91828 5.12695 1.84423 5.10379 1.77079 5.07884ZM2.20588 2.12234C2.03677 1.25964 2.14908 0.608871 2.43172 0.445538C2.73275 0.271573 3.39842 0.519608 4.10005 1.1415C4.14581 1.18215 4.19082 1.22362 4.23507 1.26589C3.97362 1.54613 3.7153 1.86519 3.46851 2.21284C3.0453 2.25199 2.64019 2.31487 2.26774 2.39912C2.2448 2.3074 2.22417 2.21509 2.20588 2.12234ZM6.08741 3.07912C5.99944 2.92743 5.9082 2.77765 5.81377 2.62989C6.10087 2.66613 6.37596 2.71424 6.63428 2.77305C6.55674 3.02119 6.46007 3.28059 6.34629 3.54656C6.26312 3.38904 6.17681 3.23319 6.08741 3.07912ZM4.50453 1.54013C4.68182 1.73189 4.8594 1.94596 5.03407 2.17824C4.67975 2.16154 4.32485 2.16147 3.97053 2.17803C4.14536 1.94789 4.32445 1.7341 4.50453 1.54013ZM2.91148 3.08175C2.8232 3.23458 2.7385 3.38946 2.65745 3.54624C2.54554 3.28122 2.44975 3.02063 2.37154 2.76898C2.62828 2.71164 2.90206 2.66477 3.18734 2.62919C3.09185 2.77785 2.99988 2.92877 2.91148 3.08175ZM3.19553 5.3748C2.9008 5.34196 2.6229 5.2975 2.36623 5.24171C2.44567 4.98557 2.54357 4.71943 2.65791 4.44873C2.73928 4.60563 2.82433 4.7606 2.913 4.9135C3.00418 5.0707 3.09859 5.22466 3.19553 5.3748ZM4.51514 6.46357C4.33292 6.26736 4.1512 6.05028 3.97372 5.8168C4.14603 5.82354 4.32168 5.82698 4.5002 5.82698C4.68362 5.82698 4.86492 5.82287 5.04338 5.81494C4.86816 6.05263 4.69125 6.27003 4.51514 6.46357ZM6.34991 4.43491C6.4702 4.70859 6.57157 4.97333 6.65206 5.22508C6.39118 5.28452 6.10949 5.33238 5.81268 5.36792C5.90779 5.21742 5.99989 5.06504 6.08892 4.91087C6.17945 4.75417 6.26647 4.59547 6.34991 4.43491ZM5.75595 4.71915C5.61964 4.95552 5.47567 5.18739 5.32427 5.41442C5.05001 5.4338 4.77515 5.44344 4.5002 5.44329C4.22016 5.44329 3.94778 5.43459 3.68549 5.41761C3.53014 5.19111 3.38342 4.95883 3.24566 4.72126C3.10854 4.48494 2.9805 4.24352 2.86175 3.9975C2.9802 3.75143 3.10789 3.50989 3.24453 3.2734L3.2445 3.27343C3.38109 3.03688 3.52664 2.80559 3.68082 2.58006C3.94842 2.55985 4.22283 2.54933 4.50017 2.54933C4.77877 2.54933 5.05357 2.55996 5.3211 2.58031C5.47373 2.8055 5.61834 3.03599 5.75468 3.27136C5.89178 3.50733 6.02115 3.74769 6.1426 3.99206C6.0224 4.23893 5.89344 4.48145 5.75595 4.71915ZM6.54893 0.434099C6.85024 0.607573 6.96743 1.30712 6.77811 2.22449C6.76602 2.28301 6.75245 2.34263 6.73769 2.40308C6.36432 2.31705 5.95894 2.25308 5.5345 2.21333C5.28725 1.86185 5.03104 1.54231 4.77385 1.26568C4.84125 1.20082 4.91026 1.13764 4.98081 1.0762C5.64515 0.499117 6.26604 0.271257 6.54893 0.434099ZM4.5002 3.18624C4.94398 3.18624 5.30374 3.54536 5.30374 3.98834C5.30374 4.43133 4.94398 4.79045 4.5002 4.79045C4.05643 4.79045 3.69667 4.43133 3.69667 3.98834C3.69667 3.54536 4.05643 3.18624 4.5002 3.18624Z" fill="#00D8FF"/>
</g>
<defs>
<clipPath id="clip0_684_23">
<rect width="9" height="8" fill="white"/>
</clipPath>
</defs>
</svg>
