<svg width="190" height="147" viewBox="0 0 190 147" fill="none" xmlns="http://www.w3.org/2000/svg">
<path d="M0.796875 69V63.0938L8.4375 61.7812V8.01562L0.796875 6.70312V0.75H8.4375H27.5156C33.5469 0.75 38.7969 2.1875 43.2656 5.0625C47.7656 7.9375 51.2656 11.8906 53.7656 16.9219C56.2656 21.9531 57.5156 27.7031 57.5156 34.1719V35.625C57.5156 41.9375 56.3125 47.625 53.9062 52.6875C51.5 57.7188 48.0781 61.7031 43.6406 64.6406C39.2344 67.5469 34.0156 69 27.9844 69H0.796875ZM17.6719 61.7812H27.5156C31.8281 61.7812 35.5312 60.6094 38.625 58.2656C41.7188 55.8906 44.0938 52.7344 45.75 48.7969C47.4375 44.8281 48.2812 40.4375 48.2812 35.625V34.0781C48.2812 29.1094 47.4375 24.6719 45.75 20.7656C44.0938 16.8281 41.7188 13.7188 38.625 11.4375C35.5312 9.15625 31.8281 8.01562 27.5156 8.01562H17.6719V61.7812ZM153.141 69L130.266 7.45312L124.828 6.70312V0.75H146.391V6.70312L140.156 7.6875L155.438 51.0938L157.031 56.4844H157.312L159 51.0938L174.844 7.64062L167.906 6.70312V0.75H189.422V6.70312L183.938 7.45312L161.062 69H153.141ZM0.796875 147V141.094L8.4375 139.781V86.0156L0.796875 84.7031V78.7969H31.2188C36.1875 78.7969 40.375 79.5469 43.7812 81.0469C47.2188 82.5156 49.8281 84.6562 51.6094 87.4688C53.3906 90.2812 54.2812 93.7188 54.2812 97.7812C54.2812 101.781 53.4062 105.141 51.6562 107.859C49.9375 110.578 47.4844 112.641 44.2969 114.047C41.1094 115.422 37.3281 116.156 32.9531 116.25L17.6719 116.531V139.781L25.3125 141.094V147H0.796875ZM45.8438 147L30.6562 112.922L39.8906 112.828L52.5 140.109L57.2344 140.953V147H45.8438ZM17.6719 109.266H30.2812C35.4375 109.266 39.1875 108.281 41.5312 106.312C43.875 104.344 45.0469 101.469 45.0469 97.6875C45.0469 94.0938 43.9219 91.25 41.6719 89.1562C39.4219 87.0625 35.9375 86.0156 31.2188 86.0156H17.6719V109.266ZM88.9219 147V141.094L96.5625 139.781V86.0156L88.9219 84.7031V78.75H96.5625H120.281C125.156 78.75 129.312 79.6094 132.75 81.3281C136.188 83.0156 138.812 85.3906 140.625 88.4531C142.438 91.5156 143.344 95.0938 143.344 99.1875C143.344 103.312 142.438 106.906 140.625 109.969C138.812 113.031 136.188 115.406 132.75 117.094C129.312 118.781 125.156 119.625 120.281 119.625H105.797V139.781L113.438 141.094V147H88.9219ZM105.797 112.406H120.281C124.906 112.406 128.359 111.172 130.641 108.703C132.953 106.203 134.109 103.062 134.109 99.2812C134.109 95.5 132.953 92.3438 130.641 89.8125C128.359 87.2812 124.906 86.0156 120.281 86.0156H105.797V112.406Z" fill="black"/>
<path d="M64.3594 69V63.0938L72 61.7812V8.01562L64.3594 6.70312V0.75H114.891V17.1562H107.484L106.453 7.875H81.2344V30.0938H106.406V37.3594H81.2344V62.0625H107.953L108.984 52.6406H116.344V69H64.3594ZM68.7656 147V137.531H78V147H68.7656Z" fill="url(#paint0_linear_521_2)"/>
<defs>
<linearGradient id="paint0_linear_521_2" x1="95" y1="-7" x2="95" y2="149" gradientUnits="userSpaceOnUse">
<stop stop-color="#CF9627"/>
<stop offset="1" stop-color="#C67F2A"/>
</linearGradient>
</defs>
</svg>
