<svg width="21" height="17" viewBox="0 0 21 17" fill="none" xmlns="http://www.w3.org/2000/svg">
<path fill-rule="evenodd" clip-rule="evenodd" d="M12.2779 3.77777C12.0275 3.77777 11.7872 3.87727 11.6101 4.05439C11.433 4.23151 11.3335 4.47173 11.3335 4.72222V12.2778C11.3335 12.5283 11.433 12.7685 11.6101 12.9456C11.7872 13.1227 12.0275 13.2222 12.2779 13.2222H16.0557C16.3062 13.2222 16.5464 13.1227 16.7235 12.9456C16.9007 12.7685 17.0002 12.5283 17.0002 12.2778V4.72222C17.0002 4.47173 16.9007 4.23151 16.7235 4.05439C16.5464 3.87727 16.3062 3.77777 16.0557 3.77777H12.2779ZM15.1113 5.66666H13.2224V11.3333H15.1113V5.66666Z" fill="black"/>
<path d="M4.72228 3.77777C4.47179 3.77777 4.23157 3.87727 4.05445 4.05439C3.87734 4.23151 3.77783 4.47173 3.77783 4.72222C3.77783 4.9727 3.87734 5.21292 4.05445 5.39004C4.23157 5.56716 4.47179 5.66666 4.72228 5.66666H8.50005C8.75054 5.66666 8.99076 5.56716 9.16788 5.39004C9.345 5.21292 9.4445 4.9727 9.4445 4.72222C9.4445 4.47173 9.345 4.23151 9.16788 4.05439C8.99076 3.87727 8.75054 3.77777 8.50005 3.77777H4.72228ZM4.72228 7.55555C4.47179 7.55555 4.23157 7.65505 4.05445 7.83217C3.87734 8.00929 3.77783 8.24951 3.77783 8.49999C3.77783 8.75048 3.87734 8.9907 4.05445 9.16782C4.23157 9.34493 4.47179 9.44444 4.72228 9.44444H8.50005C8.75054 9.44444 8.99076 9.34493 9.16788 9.16782C9.345 8.9907 9.4445 8.75048 9.4445 8.49999C9.4445 8.24951 9.345 8.00929 9.16788 7.83217C8.99076 7.65505 8.75054 7.55555 8.50005 7.55555H4.72228ZM3.77783 12.2778C3.77783 12.0273 3.87734 11.7871 4.05445 11.6099C4.23157 11.4328 4.47179 11.3333 4.72228 11.3333H8.50005C8.75054 11.3333 8.99076 11.4328 9.16788 11.6099C9.345 11.7871 9.4445 12.0273 9.4445 12.2778C9.4445 12.5283 9.345 12.7685 9.16788 12.9456C8.99076 13.1227 8.75054 13.2222 8.50005 13.2222H4.72228C4.47179 13.2222 4.23157 13.1227 4.05445 12.9456C3.87734 12.7685 3.77783 12.5283 3.77783 12.2778Z" fill="black"/>
<path fill-rule="evenodd" clip-rule="evenodd" d="M2.83333 0C2.08189 0 1.36122 0.298511 0.829864 0.829864C0.298511 1.36122 0 2.08189 0 2.83333V14.1667C0 14.9181 0.298511 15.6388 0.829864 16.1701C1.36122 16.7015 2.08189 17 2.83333 17H17.9444C18.6959 17 19.4166 16.7015 19.9479 16.1701C20.4793 15.6388 20.7778 14.9181 20.7778 14.1667V2.83333C20.7778 2.08189 20.4793 1.36122 19.9479 0.829864C19.4166 0.298511 18.6959 0 17.9444 0H2.83333ZM17.9444 1.88889H2.83333C2.58285 1.88889 2.34263 1.98839 2.16551 2.16551C1.98839 2.34263 1.88889 2.58285 1.88889 2.83333V14.1667C1.88889 14.4171 1.98839 14.6574 2.16551 14.8345C2.34263 15.0116 2.58285 15.1111 2.83333 15.1111H17.9444C18.1949 15.1111 18.4352 15.0116 18.6123 14.8345C18.7894 14.6574 18.8889 14.4171 18.8889 14.1667V2.83333C18.8889 2.58285 18.7894 2.34263 18.6123 2.16551C18.4352 1.98839 18.1949 1.88889 17.9444 1.88889Z" fill="black"/>
</svg>
