<svg width="21" height="17" viewBox="0 0 21 17" fill="none" xmlns="http://www.w3.org/2000/svg">
<path fill-rule="evenodd" clip-rule="evenodd" d="M12.2784 3.77771C12.0279 3.77771 11.7877 3.87721 11.6106 4.05433C11.4335 4.23145 11.334 4.47167 11.334 4.72215V12.2777C11.334 12.5282 11.4335 12.7684 11.6106 12.9455C11.7877 13.1227 12.0279 13.2222 12.2784 13.2222H16.0562C16.3067 13.2222 16.5469 13.1227 16.724 12.9455C16.9011 12.7684 17.0007 12.5282 17.0007 12.2777V4.72215C17.0007 4.47167 16.9011 4.23145 16.724 4.05433C16.5469 3.87721 16.3067 3.77771 16.0562 3.77771H12.2784ZM15.1118 5.6666H13.2229V11.3333H15.1118V5.6666Z" fill="white"/>
<path d="M4.72276 3.77771C4.47228 3.77771 4.23206 3.87721 4.05494 4.05433C3.87782 4.23145 3.77832 4.47167 3.77832 4.72215C3.77832 4.97264 3.87782 5.21286 4.05494 5.38998C4.23206 5.5671 4.47228 5.6666 4.72276 5.6666H8.50054C8.75102 5.6666 8.99125 5.5671 9.16837 5.38998C9.34548 5.21286 9.44499 4.97264 9.44499 4.72215C9.44499 4.47167 9.34548 4.23145 9.16837 4.05433C8.99125 3.87721 8.75102 3.77771 8.50054 3.77771H4.72276ZM4.72276 7.55549C4.47228 7.55549 4.23206 7.65499 4.05494 7.83211C3.87782 8.00923 3.77832 8.24945 3.77832 8.49993C3.77832 8.75041 3.87782 8.99064 4.05494 9.16776C4.23206 9.34487 4.47228 9.44438 4.72276 9.44438H8.50054C8.75102 9.44438 8.99125 9.34487 9.16837 9.16776C9.34548 8.99064 9.44499 8.75041 9.44499 8.49993C9.44499 8.24945 9.34548 8.00923 9.16837 7.83211C8.99125 7.65499 8.75102 7.55549 8.50054 7.55549H4.72276ZM3.77832 12.2777C3.77832 12.0272 3.87782 11.787 4.05494 11.6099C4.23206 11.4328 4.47228 11.3333 4.72276 11.3333H8.50054C8.75102 11.3333 8.99125 11.4328 9.16837 11.6099C9.34548 11.787 9.44499 12.0272 9.44499 12.2777C9.44499 12.5282 9.34548 12.7684 9.16837 12.9455C8.99125 13.1227 8.75102 13.2222 8.50054 13.2222H4.72276C4.47228 13.2222 4.23206 13.1227 4.05494 12.9455C3.87782 12.7684 3.77832 12.5282 3.77832 12.2777Z" fill="white"/>
<path fill-rule="evenodd" clip-rule="evenodd" d="M2.83333 0C2.08189 0 1.36122 0.298511 0.829864 0.829864C0.298511 1.36122 0 2.08189 0 2.83333V14.1667C0 14.9181 0.298511 15.6388 0.829864 16.1701C1.36122 16.7015 2.08189 17 2.83333 17H17.9444C18.6959 17 19.4166 16.7015 19.9479 16.1701C20.4793 15.6388 20.7778 14.9181 20.7778 14.1667V2.83333C20.7778 2.08189 20.4793 1.36122 19.9479 0.829864C19.4166 0.298511 18.6959 0 17.9444 0H2.83333ZM17.9444 1.88889H2.83333C2.58285 1.88889 2.34263 1.98839 2.16551 2.16551C1.98839 2.34263 1.88889 2.58285 1.88889 2.83333V14.1667C1.88889 14.4171 1.98839 14.6574 2.16551 14.8345C2.34263 15.0116 2.58285 15.1111 2.83333 15.1111H17.9444C18.1949 15.1111 18.4352 15.0116 18.6123 14.8345C18.7894 14.6574 18.8889 14.4171 18.8889 14.1667V2.83333C18.8889 2.58285 18.7894 2.34263 18.6123 2.16551C18.4352 1.98839 18.1949 1.88889 17.9444 1.88889Z" fill="white"/>
</svg>
