<svg width="19" height="19" viewBox="0 0 19 19" fill="none" xmlns="http://www.w3.org/2000/svg">
<circle cx="9.5" cy="9.5" r="9.5" fill="#242938"/>
<g clip-path="url(#clip0_659_4)">
<path d="M12.3995 8.59031C12.3037 8.55751 12.2072 8.52713 12.1099 8.49919C12.1262 8.43252 12.1413 8.36666 12.1546 8.30196C12.3739 7.23947 12.2305 6.3835 11.7409 6.10168C11.2715 5.8315 10.5038 6.11322 9.72843 6.7868C9.65202 6.8533 9.5773 6.92172 9.50435 6.99199C9.45551 6.94527 9.40582 6.89945 9.35528 6.85456C8.54268 6.13434 7.72818 5.8308 7.2391 6.11343C6.77009 6.38445 6.63121 7.18912 6.82861 8.19606C6.84825 8.29579 6.87043 8.395 6.89512 8.49361C6.77982 8.52631 6.66857 8.56112 6.5621 8.59817C5.60939 8.92975 5.00098 9.44936 5.00098 9.98834C5.00098 10.545 5.65414 11.1034 6.64643 11.4419C6.72688 11.4693 6.80799 11.4946 6.8897 11.5179C6.86317 11.6241 6.83961 11.731 6.81905 11.8385C6.63086 12.828 6.77782 13.6136 7.24556 13.8829C7.72867 14.161 8.53951 13.8752 9.32902 13.1863C9.39304 13.1303 9.45565 13.0727 9.51679 13.0135C9.5958 13.0896 9.67691 13.1635 9.76003 13.2351C10.5248 13.892 11.2801 14.1573 11.7474 13.8872C12.2301 13.6083 12.387 12.7643 12.1833 11.7375C12.1672 11.657 12.1493 11.577 12.1293 11.4974C12.1863 11.4806 12.2422 11.4632 12.2966 11.4452C13.3282 11.104 13.9994 10.5525 13.9994 9.98834C13.9994 9.4474 13.3714 8.92427 12.3995 8.59031ZM12.1758 11.081C12.1266 11.0972 12.0761 11.1129 12.0246 11.1282C11.9107 10.7683 11.7571 10.3856 11.569 9.9902C11.7484 9.60424 11.8962 9.22645 12.0069 8.86891C12.099 8.8955 12.1883 8.92354 12.2744 8.95312C13.1071 9.23929 13.615 9.66234 13.615 9.98834C13.615 10.3356 13.0665 10.7863 12.1758 11.081ZM11.8062 11.812C11.8963 12.266 11.9091 12.6766 11.8494 12.9975C11.7959 13.2859 11.6881 13.4781 11.5548 13.5552C11.2712 13.719 10.6648 13.506 10.0108 12.9442C9.93344 12.8777 9.85799 12.809 9.7845 12.7382C10.0381 12.4614 10.2915 12.1396 10.5388 11.7822C10.9738 11.7437 11.3848 11.6807 11.7575 11.5947C11.7754 11.6667 11.7917 11.7392 11.8062 11.812ZM8.06875 13.5268C7.79169 13.6245 7.57102 13.6273 7.43762 13.5505C7.15379 13.3871 7.03579 12.7563 7.19674 11.9101C7.21587 11.8101 7.23778 11.7107 7.26244 11.6119C7.63102 11.6933 8.03901 11.7518 8.47505 11.7871C8.72405 12.1368 8.98476 12.4583 9.24751 12.7397C9.19167 12.7937 9.13451 12.8462 9.07608 12.8974C8.72693 13.202 8.37708 13.4181 8.06875 13.5268ZM6.77079 11.0788C6.33201 10.9291 5.96965 10.7346 5.72127 10.5222C5.49807 10.3315 5.38541 10.142 5.38541 9.98834C5.38541 9.66126 5.8739 9.24406 6.68864 8.96052C6.78752 8.92613 6.891 8.89368 6.99839 8.86322C7.11101 9.22884 7.25871 9.61112 7.43696 9.99768C7.25639 10.39 7.10658 10.7783 6.99287 11.1483C6.91828 11.1269 6.84423 11.1038 6.77079 11.0788ZM7.20588 8.12234C7.03677 7.25964 7.14908 6.60887 7.43172 6.44554C7.73275 6.27157 8.39842 6.51961 9.10005 7.1415C9.14581 7.18215 9.19082 7.22362 9.23507 7.26589C8.97362 7.54613 8.7153 7.86519 8.46851 8.21284C8.0453 8.25199 7.64019 8.31487 7.26774 8.39912C7.2448 8.3074 7.22417 8.21509 7.20588 8.12234ZM11.0874 9.07912C10.9994 8.92743 10.9082 8.77765 10.8138 8.62989C11.1009 8.66613 11.376 8.71424 11.6343 8.77305C11.5567 9.02119 11.4601 9.28059 11.3463 9.54656C11.2631 9.38904 11.1768 9.23319 11.0874 9.07912ZM9.50453 7.54013C9.68182 7.73189 9.8594 7.94596 10.0341 8.17824C9.67975 8.16154 9.32485 8.16147 8.97053 8.17803C9.14536 7.94789 9.32445 7.7341 9.50453 7.54013ZM7.91148 9.08175C7.8232 9.23459 7.7385 9.38946 7.65745 9.54624C7.54554 9.28122 7.44975 9.02063 7.37154 8.76898C7.62828 8.71164 7.90206 8.66477 8.18734 8.62919C8.09185 8.77785 7.99988 8.92877 7.91148 9.08175ZM8.19553 11.3748C7.9008 11.342 7.6229 11.2975 7.36623 11.2417C7.44567 10.9856 7.54357 10.7194 7.65791 10.4487C7.73928 10.6056 7.82433 10.7606 7.913 10.9135C8.00418 11.0707 8.09859 11.2247 8.19553 11.3748ZM9.51514 12.4636C9.33292 12.2674 9.1512 12.0503 8.97372 11.8168C9.14603 11.8235 9.32168 11.827 9.5002 11.827C9.68362 11.827 9.86492 11.8229 10.0434 11.8149C9.86816 12.0526 9.69125 12.27 9.51514 12.4636ZM11.3499 10.4349C11.4702 10.7086 11.5716 10.9733 11.6521 11.2251C11.3912 11.2845 11.1095 11.3324 10.8127 11.3679C10.9078 11.2174 10.9999 11.065 11.0889 10.9109C11.1794 10.7542 11.2665 10.5955 11.3499 10.4349ZM10.7559 10.7192C10.6196 10.9555 10.4757 11.1874 10.3243 11.4144C10.05 11.4338 9.77515 11.4434 9.5002 11.4433C9.22016 11.4433 8.94778 11.4346 8.68549 11.4176C8.53014 11.1911 8.38342 10.9588 8.24566 10.7213C8.10854 10.4849 7.9805 10.2435 7.86175 9.9975C7.9802 9.75143 8.10789 9.50989 8.24453 9.2734L8.2445 9.27343C8.38109 9.03688 8.52664 8.80559 8.68082 8.58006C8.94842 8.55985 9.22283 8.54933 9.50017 8.54933C9.77877 8.54933 10.0536 8.55996 10.3211 8.58031C10.4737 8.8055 10.6183 9.03599 10.7547 9.27136C10.8918 9.50733 11.0212 9.74769 11.1426 9.99206C11.0224 10.2389 10.8934 10.4814 10.7559 10.7192ZM11.5489 6.4341C11.8502 6.60757 11.9674 7.30712 11.7781 8.22449C11.766 8.28301 11.7525 8.34263 11.7377 8.40308C11.3643 8.31705 10.9589 8.25308 10.5345 8.21333C10.2873 7.86185 10.031 7.54231 9.77385 7.26568C9.84125 7.20082 9.91026 7.13764 9.98081 7.0762C10.6452 6.49912 11.266 6.27126 11.5489 6.4341ZM9.5002 9.18624C9.94397 9.18624 10.3037 9.54536 10.3037 9.98834C10.3037 10.4313 9.94397 10.7905 9.5002 10.7905C9.05643 10.7905 8.69667 10.4313 8.69667 9.98834C8.69667 9.54536 9.05643 9.18624 9.5002 9.18624Z" fill="#00D8FF"/>
</g>
<defs>
<clipPath id="clip0_659_4">
<rect width="9" height="8" fill="white" transform="translate(5 6)"/>
</clipPath>
</defs>
</svg>
